<?xml version="1.0" encoding="iso-8859-1"?>
<!-- Generator: Adobe Illustrator 19.0.0, SVG Export Plug-In . SVG Version: 6.00 Build 0)  -->
<svg version="1.1" id="Layer_1" xmlns="http://www.w3.org/2000/svg" xmlns:xlink="http://www.w3.org/1999/xlink" x="0px" y="0px"
	 viewBox="0 0 496.2 496.2" style="enable-background:new 0 0 496.2 496.2;" xml:space="preserve">
<path style="fill:#EA4949;" d="M496.2,248.1C496.2,111.1,385.1,0,248.1,0S0,111.1,0,248.1s111.1,248.1,248.1,248.1
	S496.2,385.1,496.2,248.1z"/>
<g>
	
		<rect x="135.496" y="237.823" transform="matrix(-0.6328 -0.7743 0.7743 -0.6328 83.9165 544.8399)" style="fill:#B5B5B5;" width="71.299" height="29.4"/>
	
		<rect x="181.69" y="219.971" transform="matrix(0.383 -0.9237 0.9237 0.383 -72.6857 360.5154)" style="fill:#B5B5B5;" width="103.695" height="29.399"/>
	<circle style="fill:#B5B5B5;" cx="258.8" cy="161.5" r="70.3"/>
</g>
<path style="fill:#DDDDDD;" d="M320.8,161.1c0,34.1-27.6,61.7-61.7,61.7s-61.7-27.6-61.7-61.7s27.6-61.7,61.7-61.7
	S320.8,127,320.8,161.1z"/>
<circle style="fill:#A5A4A4;" cx="259.2" cy="161.1" r="13.5"/>
<circle style="fill:#D3D3D3;" cx="259.2" cy="161.1" r="10"/>
<g>
	<circle style="fill:#A09F9F;" cx="259.2" cy="124.6" r="14.5"/>
	<path style="fill:#A09F9F;" d="M250.4,190.6c0,8-6.5,14.5-14.5,14.5s-14.5-6.5-14.5-14.5s6.5-14.5,14.5-14.5
		C243.9,176.1,250.4,182.6,250.4,190.6z"/>
	<path style="fill:#A09F9F;" d="M295.6,190.6c0,8-6.5,14.5-14.5,14.5s-14.5-6.5-14.5-14.5s6.5-14.5,14.5-14.5
		S295.6,182.6,295.6,190.6z"/>
	<circle style="fill:#A09F9F;" cx="224" cy="150.8" r="14.5"/>
	<circle style="fill:#A09F9F;" cx="294.3" cy="150.8" r="14.5"/>
</g>
<g>
	<path style="fill:#3A3A38;" d="M259.2,139.1c8,0,14.5-6.5,14.5-14.5c0-1.7-0.3-3.4-0.9-4.9c-4.3-1.4-8.9-2.2-13.7-2.2
		s-9.4,0.8-13.7,2.2c-0.6,1.5-0.9,3.2-0.9,4.9C244.6,132.6,251.1,139.1,259.2,139.1z"/>
	<path style="fill:#3A3A38;" d="M250.4,190.6c0-8-6.5-14.5-14.5-14.5c-6,0-11.1,3.6-13.3,8.8c5.2,8,12.9,14.2,22,17.4
		C248.1,199.6,250.4,195.4,250.4,190.6z"/>
	<path style="fill:#3A3A38;" d="M281.1,176.1c-8,0-14.5,6.5-14.5,14.5c0,5,2.5,9.3,6.3,12c9-3,16.7-8.8,22.1-16.4
		C293,180.3,287.5,176.1,281.1,176.1z"/>
	<path style="fill:#3A3A38;" d="M238.5,150.8c0-8-6.5-14.5-14.5-14.5c-0.3,0-0.5,0-0.8,0c-4.9,7-7.7,15.6-7.7,24.8c0,0.5,0,1,0,1.5
		c2.4,1.7,5.3,2.7,8.4,2.7C232,165.3,238.5,158.8,238.5,150.8z"/>
	<path style="fill:#3A3A38;" d="M279.8,150.8c0,8,6.5,14.5,14.5,14.5c3.1,0,6.1-1,8.4-2.7c0-0.5,0-1,0-1.5c0-9.2-2.9-17.7-7.7-24.8
		c-0.2,0-0.5,0-0.8,0C286.3,136.3,279.8,142.8,279.8,150.8z"/>
</g>
<circle style="fill:#B5B5B5;" cx="124" cy="189.8" r="58.5"/>
<path style="fill:#DDDDDD;" d="M175.4,189.8c0,28.4-23,51.4-51.4,51.4s-51.4-23-51.4-51.4s23-51.4,51.4-51.4
	C152.4,138.4,175.4,161.4,175.4,189.8z"/>
<path style="fill:#A5A4A4;" d="M135.3,189.8c0,6.2-5.1,11.3-11.3,11.3c-6.2,0-11.3-5-11.3-11.3c0-6.2,5.1-11.3,11.3-11.3
	C130.2,178.5,135.3,183.6,135.3,189.8z"/>
<path style="fill:#D3D3D3;" d="M132.3,189.8c0,4.6-3.7,8.3-8.3,8.3c-4.6,0-8.3-3.7-8.3-8.3s3.7-8.3,8.3-8.3
	C128.6,181.5,132.3,185.2,132.3,189.8z"/>
<g>
	<circle style="fill:#A09F9F;" cx="124" cy="159.3" r="12.1"/>
	<path style="fill:#A09F9F;" d="M116.7,214.4c0,6.7-5.4,12.1-12.1,12.1s-12.1-5.4-12.1-12.1c0-6.7,5.4-12.1,12.1-12.1
		S116.7,207.7,116.7,214.4z"/>
	<path style="fill:#A09F9F;" d="M154.4,214.4c0,6.7-5.4,12.1-12.1,12.1c-6.7,0-12.1-5.4-12.1-12.1c0-6.7,5.4-12.1,12.1-12.1
		C149,202.3,154.4,207.7,154.4,214.4z"/>
	<path style="fill:#A09F9F;" d="M106.8,181.2c0,6.7-5.4,12.1-12.1,12.1s-12.1-5.4-12.1-12.1c0-6.7,5.4-12.1,12.1-12.1
		S106.8,174.5,106.8,181.2z"/>
	<path style="fill:#A09F9F;" d="M165.4,181.2c0,6.7-5.4,12.1-12.1,12.1c-6.7,0-12.1-5.4-12.1-12.1c0-6.7,5.4-12.1,12.1-12.1
		C160,169.1,165.4,174.5,165.4,181.2z"/>
</g>
<g>
	<path style="fill:#3A3A38;" d="M124,171.4c6.7,0,12.1-5.4,12.1-12.1c0-1.4-0.3-2.8-0.7-4.1c-3.6-1.2-7.4-1.8-11.4-1.8
		c-4,0-7.8,0.6-11.4,1.8c-0.5,1.3-0.7,2.7-0.7,4.1C111.9,166,117.3,171.4,124,171.4z"/>
	<path style="fill:#3A3A38;" d="M116.7,214.4c0-6.7-5.4-12.1-12.1-12.1c-5,0-9.3,3-11.1,7.3c4.3,6.6,10.8,11.8,18.3,14.5
		C114.8,221.9,116.7,218.3,116.7,214.4z"/>
	<path style="fill:#3A3A38;" d="M142.3,202.3c-6.7,0-12.1,5.4-12.1,12.1c0,4.1,2.1,7.8,5.2,10c7.5-2.5,13.9-7.3,18.4-13.7
		C152.2,205.8,147.7,202.3,142.3,202.3z"/>
	<path style="fill:#3A3A38;" d="M106.8,181.2c0-6.7-5.4-12.1-12.1-12.1c-0.2,0-0.4,0-0.6,0c-4.1,5.9-6.4,13-6.4,20.7
		c0,0.4,0,0.9,0,1.3c2,1.4,4.4,2.3,7,2.3C101.4,193.3,106.8,187.9,106.8,181.2z"/>
	<path style="fill:#3A3A38;" d="M141.2,181.2c0,6.7,5.4,12.1,12.1,12.1c2.6,0,5.1-0.8,7-2.3c0-0.4,0-0.9,0-1.3
		c0-7.7-2.4-14.8-6.4-20.7c-0.2,0-0.4,0-0.6,0C146.6,169.1,141.2,174.5,141.2,181.2z"/>
</g>
<g>
	<path style="fill:#A5A4A4;" d="M187.6,301.3c0,5.7-4.6,10.3-10.3,10.3H86.8c-5.7,0-10.3-4.6-10.3-10.3v-9.5
		c0-5.7,4.6-10.3,10.3-10.3h90.5c5.7,0,10.3,4.6,10.3,10.3V301.3z"/>
	<path style="fill:#A5A4A4;" d="M88.4,304.2c0,9.2-4.6,16.6-10.3,16.6h-9.5c-5.7,0-10.3-7.4-10.3-16.6V289c0-9.2,4.6-16.6,10.3-16.6
		h9.5c5.7,0,10.3,7.4,10.3,16.6V304.2z"/>
</g>
<path style="fill:#B5B5B5;" d="M331.1,366.4c0,11.3-9.2,20.5-20.5,20.5H130.9c-11.3,0-20.5-9.2-20.5-20.5v-92.3
	c0-11.3,9.2-20.5,20.5-20.5h179.6c11.3,0,20.5,9.2,20.5,20.5v92.3H331.1z"/>
<path style="fill:#8E8E8E;" d="M130.9,253.5c-11.3,0-20.5,9.2-20.5,20.5v92.4c0,11.3,9.2,20.5,20.5,20.5h13.7V253.5H130.9z"/>
<path style="fill:#B5B5B5;" d="M396.1,306.6c0,11.3-9.2,20.5-20.5,20.5H196c-11.3,0-20.5-9.2-20.5-20.5v-18.8
	c0-11.3,9.2-20.5,20.5-20.5h179.6c11.3,0,20.5,9.2,20.5,20.5V306.6z"/>
<path style="fill:#515151;" d="M435.8,233.4c-1.3-0.8-3-0.7-4.3,0.1L376.8,267c-1.3,0.8-2,2.2-2,3.6v53.2c0,1.5,0.8,2.9,2,3.6
	l54.7,33.5c0.7,0.4,1.5,0.6,2.2,0.6s1.4-0.2,2.1-0.5c1.3-0.8,2.2-2.2,2.2-3.7V237.1C438,235.5,437.2,234.1,435.8,233.4z"/>
<g>
	<path style="fill:#8E8E8E;" d="M190.7,284.7c0-2.5,2.6-4.6,5.2-4.6h73.7c2.5,0,4.5,2,4.5,4.6v38.7c0,2.5-2,4.6-4.5,4.6h-73.7
		c-2.5,0-5.2-2-5.2-4.6V284.7z"/>
	<path style="fill:#8E8E8E;" d="M155.7,359.2c0-2.5,2.6-4.6,5.2-4.6h151.2c2.5,0,4.6,2,4.6,4.6v15.1c0,2.5-2,4.6-4.6,4.6H160.8
		c-2.5,0-5.2-2-5.2-4.6v-15.1H155.7z"/>
</g>
<circle style="fill:#3A3A38;" cx="236.1" cy="366.8" r="9.5"/>
<g>
</g>
<g>
</g>
<g>
</g>
<g>
</g>
<g>
</g>
<g>
</g>
<g>
</g>
<g>
</g>
<g>
</g>
<g>
</g>
<g>
</g>
<g>
</g>
<g>
</g>
<g>
</g>
<g>
</g>
</svg>
